<mxfile host="app.diagrams.net" modified="2020-10-19T15:38:59.749Z" agent="5.0 (Windows)" etag="mtNrKoMFTSwZKhHTKq4Z" version="13.8.0" type="github" pages="3">
  <diagram id="MdEPTwffvpzuOe3szOf3" name="Global">
    <mxGraphModel dx="1164" dy="891" grid="1" gridSize="10" guides="1" tooltips="1" connect="1" arrows="1" fold="1" page="1" pageScale="1" pageWidth="827" pageHeight="1169" math="0" shadow="0">
      <root>
        <mxCell id="iIpR1dRujYWbTUc-yk1r-0" />
        <mxCell id="iIpR1dRujYWbTUc-yk1r-1" parent="iIpR1dRujYWbTUc-yk1r-0" />
      </root>
    </mxGraphModel>
  </diagram>
  <diagram id="ncueurfAu2HZGIkcoJOV" name="Motor thread">
    <mxGraphModel dx="1991" dy="891" grid="1" gridSize="10" guides="1" tooltips="1" connect="1" arrows="1" fold="1" page="1" pageScale="1" pageWidth="827" pageHeight="1169" math="0" shadow="0">
      <root>
        <mxCell id="0" />
        <mxCell id="1" parent="0" />
        <mxCell id="KFZyD4Yv9Hki17h_dnK9-3" style="edgeStyle=orthogonalEdgeStyle;rounded=0;orthogonalLoop=1;jettySize=auto;html=1;entryX=0.5;entryY=0;entryDx=0;entryDy=0;" edge="1" parent="1" source="KFZyD4Yv9Hki17h_dnK9-1" target="KFZyD4Yv9Hki17h_dnK9-2">
          <mxGeometry relative="1" as="geometry" />
        </mxCell>
        <mxCell id="KFZyD4Yv9Hki17h_dnK9-1" value="UART RX" style="shape=process;whiteSpace=wrap;html=1;backgroundOutline=1;" vertex="1" parent="1">
          <mxGeometry x="40" y="80" width="120" height="60" as="geometry" />
        </mxCell>
        <mxCell id="KFZyD4Yv9Hki17h_dnK9-5" value="rb_put()" style="edgeStyle=orthogonalEdgeStyle;rounded=0;orthogonalLoop=1;jettySize=auto;html=1;fontStyle=0;horizontal=1;labelBorderColor=#006600;" edge="1" parent="1" source="KFZyD4Yv9Hki17h_dnK9-2" target="KFZyD4Yv9Hki17h_dnK9-4">
          <mxGeometry y="10" relative="1" as="geometry">
            <mxPoint as="offset" />
          </mxGeometry>
        </mxCell>
        <mxCell id="KFZyD4Yv9Hki17h_dnK9-2" value="UART polling thread" style="rounded=0;whiteSpace=wrap;html=1;" vertex="1" parent="1">
          <mxGeometry x="40" y="200" width="120" height="60" as="geometry" />
        </mxCell>
        <mxCell id="TOJtMFyHrnjypgHac7yD-3" value="rb_get()" style="edgeStyle=orthogonalEdgeStyle;rounded=0;orthogonalLoop=1;jettySize=auto;html=1;entryX=0;entryY=0.5;entryDx=0;entryDy=0;labelBorderColor=#000000;" edge="1" parent="1" source="KFZyD4Yv9Hki17h_dnK9-4" target="TOJtMFyHrnjypgHac7yD-2">
          <mxGeometry x="-0.0769" y="10" relative="1" as="geometry">
            <mxPoint as="offset" />
          </mxGeometry>
        </mxCell>
        <mxCell id="KFZyD4Yv9Hki17h_dnK9-4" value="RingBuffer" style="rounded=1;whiteSpace=wrap;html=1;" vertex="1" parent="1">
          <mxGeometry x="280" y="200" width="120" height="60" as="geometry" />
        </mxCell>
        <mxCell id="TOJtMFyHrnjypgHac7yD-1" value="&lt;div&gt;&lt;font face=&quot;Courier New&quot;&gt;1- Waits on semaphore that buffer has space&lt;/font&gt;&lt;/div&gt;&lt;div&gt;&lt;font face=&quot;Courier New&quot;&gt;2- Copies new packet to buffer&lt;/font&gt;&lt;/div&gt;&lt;div&gt;&lt;font face=&quot;Courier New&quot;&gt;3- Signals on semaphore that buffer has new data&lt;/font&gt;&lt;/div&gt;&lt;div&gt;&lt;font face=&quot;Courier New&quot;&gt;4- Polls for the next packet&lt;br&gt;&lt;br&gt;&lt;/font&gt;&lt;/div&gt;" style="text;html=1;strokeColor=none;fillColor=none;align=left;verticalAlign=middle;whiteSpace=wrap;rounded=0;labelBackgroundColor=#ffffff;labelBorderColor=#000000;labelPosition=center;verticalLabelPosition=middle;" vertex="1" parent="1">
          <mxGeometry x="-80" y="270" width="360" height="70" as="geometry" />
        </mxCell>
        <mxCell id="TOJtMFyHrnjypgHac7yD-2" value="&lt;div align=&quot;center&quot;&gt;Motor command&lt;br&gt;&lt;/div&gt; processor thread" style="rounded=0;whiteSpace=wrap;html=1;labelBackgroundColor=#ffffff;align=center;" vertex="1" parent="1">
          <mxGeometry x="530" y="200" width="190" height="60" as="geometry" />
        </mxCell>
      </root>
    </mxGraphModel>
  </diagram>
  <diagram id="gJjNMFy3Thdx6P3jV7n4" name="RingBuffer implementation">
    <mxGraphModel dx="1164" dy="891" grid="1" gridSize="10" guides="1" tooltips="1" connect="1" arrows="1" fold="1" page="1" pageScale="1" pageWidth="827" pageHeight="1169" math="0" shadow="0">
      <root>
        <mxCell id="MNxF0pU7yLJ-yEbSB62u-0" />
        <mxCell id="MNxF0pU7yLJ-yEbSB62u-1" parent="MNxF0pU7yLJ-yEbSB62u-0" />
      </root>
    </mxGraphModel>
  </diagram>
</mxfile>
